<?xml version="1.0" encoding="UTF-8" standalone="no"?>
<!DOCTYPE svg PUBLIC "-//W3C//DTD SVG 1.1//EN"
 "http://www.w3.org/Graphics/SVG/1.1/DTD/svg11.dtd">
<!-- Generated by graphviz version 12.2.1 (20241206.2353)
 -->
<!-- Title: G Pages: 1 -->
<svg width="1031pt" height="657pt"
 viewBox="0.00 0.00 1030.51 657.00" xmlns="http://www.w3.org/2000/svg" xmlns:xlink="http://www.w3.org/1999/xlink">
<g id="graph0" class="graph" transform="scale(1 1) rotate(0) translate(4 653)">
<title>G</title>
<polygon fill="#f9f9f9" stroke="none" points="-4,4 -4,-653 1026.51,-653 1026.51,4 -4,4"/>
<g id="clust1" class="cluster">
<title>cluster_1</title>
<polygon fill="#5dade2" fill-opacity="0.125490" stroke="#5dade2" stroke-width="2" points="42.45,-8 42.45,-424 1014.51,-424 1014.51,-8 42.45,-8"/>
<text text-anchor="middle" x="528.48" y="-406.7" font-family="Arial" font-size="14.00">root</text>
</g>
<g id="clust2" class="cluster">
<title>cluster_2</title>
<polygon fill="#3498db" fill-opacity="0.125490" stroke="#3498db" stroke-width="2" points="283.07,-16 283.07,-200 991.13,-200 991.13,-16 283.07,-16"/>
<text text-anchor="middle" x="637.1" y="-182.7" font-family="Arial" font-size="14.00">Ingress</text>
</g>
<g id="clust3" class="cluster">
<title>cluster_3</title>
<polygon fill="#3498db" fill-opacity="0.125490" stroke="#3498db" stroke-width="2" points="277.07,-208 277.07,-392 1006.51,-392 1006.51,-208 277.07,-208"/>
<text text-anchor="middle" x="641.79" y="-374.7" font-family="Arial" font-size="14.00">Common</text>
</g>
<g id="clust4" class="cluster">
<title>cluster_legend</title>
<polygon fill="#f9f9f9" stroke="gray" stroke-width="2" stroke-dasharray="5,2" points="8,-432 8,-641 435.49,-641 435.49,-432 8,-432"/>
<text text-anchor="middle" x="221.75" y="-623.7" font-family="Arial" font-size="14.00">Legend</text>
</g>
<!-- n0 -->
<g id="node1" class="node">
<title>n0</title>
<polygon fill="#5dade2" stroke="black" stroke-width="1.5" points="116.9,-220.28 113.9,-224.28 92.9,-224.28 89.9,-220.28 50.45,-220.28 50.45,-175.72 116.9,-175.72 116.9,-220.28"/>
<text text-anchor="middle" x="83.67" y="-192.57" font-family="Arial" font-size="14.00">root</text>
</g>
<!-- n3 -->
<g id="node2" class="node">
<title>n3</title>
<polygon fill="#3498db" stroke="black" stroke-width="1.5" points="378.52,-168.28 375.52,-172.28 354.52,-172.28 351.52,-168.28 291.07,-168.28 291.07,-123.72 378.52,-123.72 378.52,-168.28"/>
<text text-anchor="middle" x="334.79" y="-140.57" font-family="Arial" font-size="14.00">Ingress</text>
</g>
<!-- n0&#45;&gt;n3 -->
<g id="edge3" class="edge">
<title>n0&#45;&gt;n3</title>
<path fill="none" stroke="blue" d="M83.51,-175.34C83.51,-161.33 83.51,-146 83.51,-146 83.51,-146 281.22,-146 281.22,-146"/>
<polygon fill="blue" stroke="blue" points="281.22,-148.8 289.22,-146 281.22,-143.2 281.22,-148.8"/>
<text text-anchor="middle" x="196.72" y="-161.5" font-family="Arial" font-size="10.00" fill="gray">Contain</text>
</g>
<!-- n1 -->
<g id="node5" class="node">
<title>n1</title>
<polygon fill="#3498db" stroke="black" stroke-width="1.5" points="384.52,-274.27 381.52,-278.27 360.52,-278.27 357.52,-274.27 285.07,-274.27 285.07,-229.72 384.52,-229.72 384.52,-274.27"/>
<text text-anchor="middle" x="334.79" y="-246.57" font-family="Arial" font-size="14.00">Common</text>
</g>
<!-- n0&#45;&gt;n1 -->
<g id="edge1" class="edge">
<title>n0&#45;&gt;n1</title>
<path fill="none" stroke="blue" d="M83.51,-220.59C83.51,-235.39 83.51,-252 83.51,-252 83.51,-252 275.33,-252 275.33,-252"/>
<polygon fill="blue" stroke="blue" points="275.33,-254.8 283.33,-252 275.33,-249.2 275.33,-254.8"/>
<text text-anchor="middle" x="196.72" y="-240.5" font-family="Arial" font-size="10.00" fill="gray">Contain</text>
</g>
<!-- n6 -->
<g id="node3" class="node">
<title>n6</title>
<ellipse fill="#f4d03f" stroke="black" stroke-width="1.5" cx="747.87" cy="-56" rx="235.25" ry="31.5"/>
<text text-anchor="middle" x="747.87" y="-50.58" font-family="Arial" font-size="14.00">npm (./Ingress): @codeeditorland/ingress v0.0.1</text>
</g>
<!-- n3&#45;&gt;n6 -->
<g id="edge6" class="edge">
<title>n3&#45;&gt;n6</title>
<path fill="none" stroke="blue" d="M334.51,-123.29C334.51,-96.63 334.51,-56 334.51,-56 334.51,-56 502.7,-56 502.7,-56"/>
<polygon fill="blue" stroke="blue" points="502.7,-58.8 510.7,-56 502.7,-53.2 502.7,-58.8"/>
<text text-anchor="middle" x="462.37" y="-79.5" font-family="Arial" font-size="10.00" fill="gray">Contain</text>
</g>
<!-- n4 -->
<g id="node4" class="node">
<title>n4</title>
<polygon fill="#fadbd8" stroke="black" points="803.22,-168.28 686.52,-168.28 686.52,-123.72 809.22,-123.72 809.22,-162.28 803.22,-168.28"/>
<polyline fill="none" stroke="black" points="803.22,-168.28 803.22,-162.28"/>
<polyline fill="none" stroke="black" points="809.22,-162.28 803.22,-162.28"/>
<text text-anchor="middle" x="747.87" y="-140.57" font-family="Arial" font-size="14.00">package.json</text>
</g>
<!-- n3&#45;&gt;n4 -->
<g id="edge4" class="edge">
<title>n3&#45;&gt;n4</title>
<path fill="none" stroke="blue" d="M379,-146C379,-146 676.78,-146 676.78,-146"/>
<polygon fill="blue" stroke="blue" points="676.78,-148.8 684.78,-146 676.78,-143.2 676.78,-148.8"/>
<text text-anchor="middle" x="462.37" y="-148.5" font-family="Arial" font-size="10.00" fill="gray">Contain</text>
</g>
<!-- n5 -->
<g id="node6" class="node">
<title>n5</title>
<ellipse fill="#f4d03f" stroke="black" stroke-width="1.5" cx="747.87" cy="-248" rx="250.63" ry="31.5"/>
<text text-anchor="middle" x="747.87" y="-242.57" font-family="Arial" font-size="14.00">npm (./Common): @codeeditorland/common v0.0.6</text>
</g>
<!-- n1&#45;&gt;n5 -->
<g id="edge5" class="edge">
<title>n1&#45;&gt;n5</title>
<path fill="none" stroke="blue" d="M384.62,-252C384.62,-252 489.31,-252 489.31,-252"/>
<polygon fill="blue" stroke="blue" points="489.31,-254.8 497.31,-252 489.31,-249.2 489.31,-254.8"/>
<text text-anchor="middle" x="462.37" y="-254.5" font-family="Arial" font-size="10.00" fill="gray">Contain</text>
</g>
<!-- n2 -->
<g id="node7" class="node">
<title>n2</title>
<polygon fill="#fadbd8" stroke="black" points="803.22,-360.27 686.52,-360.27 686.52,-315.73 809.22,-315.73 809.22,-354.27 803.22,-360.27"/>
<polyline fill="none" stroke="black" points="803.22,-360.27 803.22,-354.27"/>
<polyline fill="none" stroke="black" points="809.22,-354.27 803.22,-354.27"/>
<text text-anchor="middle" x="747.87" y="-332.57" font-family="Arial" font-size="14.00">package.json</text>
</g>
<!-- n1&#45;&gt;n2 -->
<g id="edge2" class="edge">
<title>n1&#45;&gt;n2</title>
<path fill="none" stroke="blue" d="M375.51,-274.6C375.51,-300.08 375.51,-338 375.51,-338 375.51,-338 676.87,-338 676.87,-338"/>
<polygon fill="blue" stroke="blue" points="676.87,-340.8 684.87,-338 676.87,-335.2 676.87,-340.8"/>
<text text-anchor="middle" x="462.37" y="-323.5" font-family="Arial" font-size="10.00" fill="gray">Contain</text>
</g>
<!-- dir -->
<g id="node8" class="node">
<title>dir</title>
<polygon fill="#5dade2" stroke="black" points="132.27,-497.27 129.27,-501.27 108.27,-501.27 105.27,-497.27 35.07,-497.27 35.07,-452.73 132.27,-452.73 132.27,-497.27"/>
<text text-anchor="middle" x="83.67" y="-469.57" font-family="Arial" font-size="14.00">Directory</text>
</g>
<!-- file -->
<g id="node9" class="node">
<title>file</title>
<polygon fill="#fadbd8" stroke="black" points="361.27,-484.27 302.32,-484.27 302.32,-439.73 367.27,-439.73 367.27,-478.27 361.27,-484.27"/>
<polyline fill="none" stroke="black" points="361.27,-484.27 361.27,-478.27"/>
<polyline fill="none" stroke="black" points="367.27,-478.27 361.27,-478.27"/>
<text text-anchor="middle" x="334.79" y="-456.57" font-family="Arial" font-size="14.00">File</text>
</g>
<!-- dir&#45;&gt;file -->
<g id="edge7" class="edge">
<title>dir&#45;&gt;file</title>
<path fill="none" stroke="blue" d="M132.68,-468.5C132.68,-468.5 290.38,-468.5 290.38,-468.5"/>
<polygon fill="blue" stroke="blue" points="290.38,-472 300.38,-468.5 290.38,-465 290.38,-472"/>
<text text-anchor="middle" x="196.72" y="-478.5" font-family="Arial" font-size="10.00" fill="gray">Contain</text>
</g>
<!-- pkg -->
<g id="node10" class="node">
<title>pkg</title>
<ellipse fill="#eb984e" stroke="black" cx="83.67" cy="-565" rx="67.67" ry="31.5"/>
<text text-anchor="middle" x="83.67" y="-559.58" font-family="Arial" font-size="14.00">Package</text>
</g>
<!-- ext -->
<g id="node11" class="node">
<title>ext</title>
<polygon fill="#ec7063" stroke="black" points="388.93,-609.55 280.65,-609.55 242.09,-520.45 427.49,-520.45 388.93,-609.55"/>
<text text-anchor="middle" x="334.79" y="-559.58" font-family="Arial" font-size="14.00">External</text>
</g>
<!-- pkg&#45;&gt;ext -->
<g id="edge8" class="edge">
<title>pkg&#45;&gt;ext</title>
<path fill="none" stroke="red" stroke-dasharray="5,2" d="M151.63,-565C151.63,-565 249.54,-565 249.54,-565"/>
<polygon fill="red" stroke="red" points="249.54,-568.5 259.54,-565 249.54,-561.5 249.54,-568.5"/>
<text text-anchor="middle" x="196.72" y="-567.5" font-family="Arial" font-size="10.00" fill="gray">Dependency</text>
</g>
</g>
</svg>
